<svg xmlns="http://www.w3.org/2000/svg" width="16" height="16" fill="none"><g clip-path="url(#a)"><path fill="#00850D" stroke="#00850D" stroke-linecap="round" stroke-linejoin="round" stroke-width="1.5" d="M2.567 5.747a2.667 2.667 0 0 1 3.186-3.18 2.667 2.667 0 0 1 4.494 0 2.667 2.667 0 0 1 3.186 3.186 2.666 2.666 0 0 1 0 4.494 2.666 2.666 0 0 1-3.18 3.186 2.666 2.666 0 0 1-4.5 0 2.666 2.666 0 0 1-3.186-3.18 2.666 2.666 0 0 1 0-4.506"/><path fill="#00850D" d="m6 8 1.333 1.333L10 6.667"/><path stroke="#fff" stroke-linecap="round" stroke-linejoin="round" stroke-width="1.5" d="m6 8 1.333 1.333L10 6.667"/></g><defs><clipPath id="a"><path fill="#fff" d="M0 0h16v16H0z"/></clipPath></defs></svg>