<svg xmlns="http://www.w3.org/2000/svg" width="16" height="16" fill="none"><g clip-path="url(#a)"><path fill="#006CEB" stroke="#006CEB" stroke-linecap="round" stroke-linejoin="round" d="M2.567 5.747a2.667 2.667 0 0 1 3.186-3.18 2.667 2.667 0 0 1 4.494 0 2.667 2.667 0 0 1 3.186 3.186 2.666 2.666 0 0 1 0 4.494 2.666 2.666 0 0 1-3.18 3.186 2.666 2.666 0 0 1-4.5 0 2.666 2.666 0 0 1-3.186-3.18 2.666 2.666 0 0 1 0-4.506"/><path fill="#006CEB" d="M10.667 5.334h-4a1.333 1.333 0 1 0 0 2.666h2.666a1.333 1.333 0 1 1 0 2.667h-4"/><path stroke="#fff" stroke-linecap="round" stroke-linejoin="round" d="M10.667 5.334h-4a1.333 1.333 0 1 0 0 2.666h2.666a1.333 1.333 0 1 1 0 2.667h-4"/><path fill="#006CEB" d="M8 12V4z"/><path stroke="#fff" stroke-linecap="round" stroke-linejoin="round" d="M8 12V4"/></g><defs><clipPath id="a"><path fill="#fff" d="M0 0h16v16H0z"/></clipPath></defs></svg>